<svg xmlns="http://www.w3.org/2000/svg" width="546.133" height="134.4" viewBox="0 0 409.600006 100.800003"><path d="M125.148 40.258c4.688 0 8.485-3.801 8.485-8.492a8.486 8.486 0 0 0-8.485-8.489 8.486 8.486 0 0 0-8.488 8.489 8.487 8.487 0 0 0 8.488 8.492zm280.125 29.008c-1.289-.907-2.285-1.059-3.113.707-14.258 30.875-38.281 15.468-35.894 16.824 5.328-2.438 19.343-13.68 17.226-29.2-1.285-9.484-9.426-13.69-18.07-12.183-15.082 2.629-20.629 18.898-17.805 33.3.496 2.474 1.38 4.513 2.258 6.513-17.043 13.859-23.813-12.41-24.578-15.547-.031-.168 13.16-11.164 16.828-37.364 3.844-27.46-4.914-32.46-13.871-32.304-16.578.289-21.055 34.922-15.04 63.785-.503.133-2.847 1.43-6.616 1.574-2.715-8.531-14.301-16.012-17.332-13.129-7.594 7.211 1.84 21.305 8.476 22.414-3.988 24.551-28.918 18.469-24.277-12.289 8.117-15.078 14.293-37.492 13.191-51.027-.39-4.793-3.933-11.211-11.945-10.895-15.406.614-17.082 35.254-15.277 59.84-.09-.605-.946 2.988-7.262 4.774-1.492-8.29-14.84-16.61-17.984-12.61-5.883 7.489 4.312 20.84 9.14 21.77-3.984 24.554-28.914 18.472-24.273-12.29 8.117-15.074 14.293-37.492 13.187-51.023-.387-4.793-3.93-11.21-11.941-10.894-15.41.61-17.086 35.254-15.278 59.84-.09-.618-.968 3.093-7.539 4.851-.222-10.754-13.62-15.687-16.84-12.254-5.734 6.117 1.317 18.668 7.836 21.77-3.984 24.554-28.914 18.472-24.273-12.29 8.117-15.074 14.293-37.492 13.191-51.023-.39-4.793-3.933-11.21-11.945-10.894-15.41.61-16.648 36.992-14.84 61.582-5.078 21.742-22.097 48.898-19.886-5.5.218-3.817.457-5.266-1.446-6.692-1.426-1.113-4.668-.578-6.437-.535-2.156.086-2.696 1.348-3.172 3.254-1.11 4.918-1.309 9.684-1.465 16.191-.105 3.043-.348 4.461-1.52 8.614-1.171 4.148-7.847 11.73-11.503 10.465-5.075-1.746-3.41-16.063-2.457-25.903.789-7.773-1.747-11.265-8.243-12.535-3.804-.793-6.117-.672-10.078-1.918-3.746-1.183-4.594-8.27-12.582-5.906-4.37 1.293-1.562 10.55-2.613 17.414C64.047 92.305 53.3 93.23 48.316 76.832 70.77 21.848 54.812.172 45.473.172c-9.727 0-20.848 6.7-16.141 49.574-2.289-.668-2.992-1.027-5.5-1.027C9.66 48.719 0 60.176 0 74.312 0 88.45 9.66 99.91 23.832 99.91c8.371 0 14.246-3.808 18.695-9.695 2.903 4.16 6.438 9.758 12.903 9.508 19.27-.754 24.875-40.282 25.535-42.485 2.058.317 4.008.918 5.91 1.235 3.172.476 3.398 1.73 3.328 4.922-.84 26.882 4.121 36.292 15.375 36.292 6.27 0 11.856-6.16 15.707-10.562 2.875 5.934 7.457 10.383 13.602 10.563 14.894.37 20.597-23.368 20.078-20.243-.41 2.45 4.832 20.11 20.164 20.172 18.992.082 22.523-20.805 22.945-24.305.051-.695.074-.62 0 0-.004.067-.012.133-.015.215 6.027-1.125 9.14-4.355 9.14-4.355s4.84 28.773 22.778 28.445c18.62-.336 22.132-19.215 22.597-22.898.059-.871.094-.77 0 0-.004.039-.008.07-.008.11 7.16-2.606 9.043-5.224 9.043-5.224s3.852 28.204 22.778 28.45c16.867.218 23.117-17.055 23.156-24.282 2.844.028 8.105-1.687 7.984-1.789 0 0 6.176 24.657 23.43 25.926 8.102.594 14.18-4.558 17.645-6.91 8.14 6.594 35.246 15.012 52.363-14.008 2.418-4.164-2.777-9.082-3.692-9.726zM23.148 90.336c-8.27 0-13.574-7.648-13.574-15.895 0-8.242 4.871-15.89 13.14-15.89 3.724 0 5.79.41 8.692 2.93.524 2.07 2.012 6.847 2.739 9.019.972 2.902 2.125 5.375 3.292 8.063-1.664 6.898-7.12 11.773-14.289 11.773zm20.157-28.613c-.344-.547-.274-.211-.66-.727-1.516-4.125-4.438-13.332-4.774-23.785-.383-11.828 1.59-25.691 7.399-25.691 3.937 0 8.125 28.097-1.965 50.203zm116.449-12.32c-.934-7.02-.984-38.31 6.527-37.446 4.149 1.68-2.629 31.203-6.527 37.445zm54.844 0c-.93-7.02-.98-38.31 6.53-37.446 4.15 1.68-2.628 31.203-6.53 37.445zm54.414.433c-.934-7.02-.98-38.305 6.527-37.445 4.149 1.68-2.629 31.207-6.527 37.445zm60.07-39.711c6.867-.71 6.582 29.277-7.2 48.21-1.777-6.843-4.503-45.862 7.2-48.21zm28.863 64.531c-2.207-11.144 3.493-18.46 9.371-19.261 2.051-.333 5.028 1 5.622 3.488.976 4.687-.141 11.64-13.293 20.46.02.075-1.207-2.206-1.7-4.687zm0 0"/></svg>