<svg xmlns="http://www.w3.org/2000/svg" width="546.133" height="124pt" viewBox="0 0 409.600006 124"><path d="M17.074 58.723H.727V38.602h16.808v-5.11C17.535 8.738 28.793.11 50.996.11c6.012 0 10.637.961 14.184 1.598l-1.696 19.805c-2.312-.797-4.625-1.278-8.789-1.278-7.093 0-9.867 5.11-9.867 13.258v5.11h19.734v20.12H44.828v63.083H17.074V58.723M79.055 2.027h27.754v119.774H79.055zm51.5 1.918h27.754v21.078h-27.754zm0 34.657h27.754v83.203h-27.754zm111.172 23.793c-5.086-3.192-10.176-4.63-16.805-4.63-12.027 0-21.277 8.622-21.277 22.997 0 13.254 10.792 21.875 22.82 21.875 6.32 0 12.64-1.434 17.27-3.989l.617 21.399c-6.942 2.398-15.266 3.676-22.668 3.676-26.524 0-46.723-15.973-46.723-43.442 0-27.629 20.2-43.597 46.723-43.597 8.324 0 15.726 1.437 22.05 4.629l-2.007 21.082m14.187-60.368h27.754v71.547h.309l23.128-34.972h30.375L309.57 76.77l30.227 45.035H306.18l-22.203-41.203h-.309v41.203h-27.754V2.027" fill="#595959"/><path d="M407.48 61.594c-3.078-.957-6.168-.957-9.402-.957-12.953 0-20.2 9.742-20.2 26.035v35.133h-27.753V38.602h25.285v15.332h.309c4.781-10.543 11.719-17.25 23.746-17.25 3.234 0 6.629.48 9.406.957l-1.39 23.953" fill="#636363"/></svg>