<svg xmlns="http://www.w3.org/2000/svg" width="546.133" height="179.2" viewBox="0 0 409.600006 134.399994"><path d="M396.844 82.137l11.36 7.574c-3.688 5.434-12.509 14.754-27.759 14.754-18.937 0-33.039-14.653-33.039-33.293 0-19.832 14.25-33.29 31.446-33.29 17.293 0 25.765 13.755 28.503 21.18l1.497 3.79L364.3 81.289c3.387 6.68 8.668 10.066 16.144 10.066 7.477 0 12.66-3.687 16.399-9.218zm-34.938-12.008l29.754-12.36c-1.644-4.136-6.531-7.078-12.36-7.078-7.425 0-17.741 6.579-17.394 19.438zm0 0" fill="#6e6e6e"/><path d="M325.926 3.945h14.351v97.48h-14.351zm0 0" fill="#7d7d7d"/><path d="M303.3 40.477h13.852V99.68c0 24.57-14.5 34.687-31.644 34.687-16.149 0-25.863-10.867-29.504-19.687l12.71-5.282c2.294 5.434 7.825 11.86 16.794 11.86 11.015 0 17.793-6.828 17.793-19.586V96.89h-.5c-3.29 3.984-9.567 7.574-17.543 7.574-16.645 0-31.895-14.504-31.895-33.192 0-18.789 15.25-33.441 31.895-33.441 7.926 0 14.254 3.54 17.543 7.426h.5zm.997 30.796c0-11.761-7.824-20.332-17.793-20.332-10.067 0-18.54 8.57-18.54 20.332 0 11.614 8.474 20.036 18.54 20.036 9.969.046 17.793-8.422 17.793-20.036zm0 0" fill="#7a7a7a"/><path d="M174.574 71.023c0 19.188-14.953 33.293-33.293 33.293s-33.289-14.156-33.289-33.293c0-19.285 14.95-33.34 33.29-33.34s33.292 14.055 33.292 33.34zm-14.554 0c0-11.96-8.672-20.183-18.739-20.183-10.066 0-18.738 8.222-18.738 20.183 0 11.864 8.672 20.184 18.738 20.184 10.067 0 18.739-8.32 18.739-20.184zm0 0" fill="#6e6e6e"/><path d="M247.285 71.172c0 19.187-14.953 33.293-33.293 33.293s-33.289-14.106-33.289-33.293c0-19.285 14.95-33.29 33.29-33.29 18.339 0 33.292 13.954 33.292 33.29zm-14.601 0c0-11.957-8.672-20.184-18.739-20.184-10.07 0-18.738 8.227-18.738 20.184 0 11.863 8.668 20.183 18.738 20.183 10.114 0 18.739-8.37 18.739-20.183zm0 0" fill="#c2c2c2"/><path d="M53.273 89.863c-20.882 0-37.23-16.843-37.23-37.726S32.391 14.41 53.273 14.41c11.262 0 19.485 4.438 25.567 10.117l10.015-10.015C80.383 6.387 69.07.207 53.273.207 24.668.207.593 23.531.593 52.137c0 28.605 24.075 51.93 52.68 51.93 15.45 0 27.11-5.087 36.23-14.555 9.368-9.367 12.259-22.524 12.259-33.188 0-3.34-.399-6.781-.848-9.32h-47.64v13.855H87.21c-.996 8.668-3.738 14.602-7.773 18.637-4.887 4.934-12.61 10.367-26.165 10.367zm0 0" fill="#7a7a7a"/></svg>