<svg xmlns="http://www.w3.org/2000/svg" width="546.133" height="88pt" viewBox="0 0 409.600006 88"><path d="M409.5 39.55v-7.202h-8.945V21.152l-.301.09-8.399 2.57-.164.051v8.485H378.43V27.62c0-2.2.492-3.883 1.465-5.008.96-1.11 2.34-1.672 4.097-1.672 1.262 0 2.57.297 3.883.883l.332.149v-7.586l-.156-.055c-1.227-.441-2.899-.664-4.965-.664-2.61 0-4.98.566-7.047 1.691a12.045 12.045 0 0 0-4.836 4.782c-1.137 2.043-1.71 4.402-1.71 7.011v5.196h-6.227v7.203h6.226v30.336h8.938V39.55h13.261v19.277c0 7.942 3.743 11.965 11.13 11.965 1.214 0 2.491-.14 3.796-.422 1.328-.285 2.23-.57 2.766-.875l.117-.07V62.16l-.363.238c-.485.325-1.09.59-1.801.786-.711.199-1.305.3-1.766.3-1.73 0-3.007-.468-3.804-1.386-.801-.93-1.211-2.555-1.211-4.825V39.551zm-66.2 23.934c-3.245 0-5.8-1.078-7.605-3.195-1.812-2.129-2.734-5.168-2.734-9.027 0-3.98.922-7.094 2.734-9.262 1.805-2.152 4.34-3.246 7.532-3.246 3.101 0 5.57 1.043 7.336 3.101 1.777 2.075 2.68 5.165 2.68 9.192 0 4.074-.848 7.207-2.52 9.3-1.66 2.083-4.157 3.137-7.422 3.137zm.4-32.043c-6.192 0-11.11 1.817-14.614 5.395-3.504 3.578-5.281 8.527-5.281 14.715 0 5.879 1.734 10.605 5.156 14.05 3.418 3.446 8.074 5.192 13.832 5.192 6 0 10.82-1.84 14.324-5.465 3.504-3.625 5.278-8.527 5.278-14.574 0-5.969-1.665-10.73-4.95-14.152-3.289-3.422-7.914-5.16-13.746-5.16zm-34.305 0c-4.211 0-7.696 1.079-10.356 3.204-2.68 2.136-4.035 4.937-4.035 8.328 0 1.761.293 3.328.871 4.656.578 1.332 1.477 2.504 2.668 3.488 1.187.977 3.012 2 5.437 3.04 2.036.84 3.551 1.546 4.516 2.105.945.547 1.613 1.097 1.992 1.633.367.527.555 1.242.555 2.128 0 2.524-1.89 3.75-5.777 3.75-1.442 0-3.086-.3-4.887-.894a18.363 18.363 0 0 1-5.004-2.54l-.371-.265v8.61l.137.062c1.265.582 2.859 1.074 4.738 1.461 1.875.39 3.582.586 5.062.586 4.567 0 8.247-1.082 10.934-3.219 2.7-2.148 4.07-5.02 4.07-8.527 0-2.527-.738-4.7-2.191-6.45-1.442-1.734-3.945-3.327-7.442-4.738-2.78-1.117-4.566-2.043-5.3-2.757-.707-.688-1.07-1.66-1.07-2.891 0-1.09.445-1.965 1.359-2.676.918-.71 2.199-1.074 3.804-1.074 1.489 0 3.012.238 4.528.7 1.515.46 2.844 1.077 3.957 1.831l.363.25v-8.164l-.14-.058c-1.024-.442-2.375-.817-4.016-1.122-1.633-.3-3.117-.457-4.402-.457zm-37.696 32.043c-3.246 0-5.804-1.078-7.605-3.195-1.817-2.129-2.735-5.168-2.735-9.027 0-3.98.922-7.094 2.735-9.262 1.804-2.152 4.336-3.246 7.531-3.246 3.102 0 5.566 1.043 7.336 3.101 1.777 2.075 2.676 5.165 2.676 9.192 0 4.074-.848 7.207-2.52 9.3-1.66 2.083-4.152 3.137-7.418 3.137zm.399-32.043c-6.192 0-11.11 1.817-14.614 5.395-3.504 3.578-5.28 8.527-5.28 14.715 0 5.883 1.733 10.605 5.155 14.05 3.418 3.446 8.075 5.192 13.832 5.192 6 0 10.82-1.84 14.325-5.465 3.504-3.625 5.277-8.527 5.277-14.574 0-5.969-1.664-10.73-4.953-14.152-3.29-3.422-7.914-5.16-13.742-5.16zm-33.465 7.407v-6.5H229.8v37.539h8.832V50.684c0-3.266.742-5.946 2.203-7.973 1.441-2.004 3.363-3.016 5.71-3.016.794 0 1.688.13 2.653.39.957.259 1.653.536 2.063.833l.367.27V32.28l-.14-.058c-.825-.352-1.985-.528-3.458-.528-2.219 0-4.207.715-5.906 2.117-1.492 1.235-2.574 2.926-3.398 5.036zm-24.645-7.407c-4.05 0-7.664.872-10.738 2.582-3.078 1.72-5.46 4.168-7.082 7.286-1.613 3.105-2.434 6.738-2.434 10.785 0 3.547.797 6.804 2.364 9.672 1.574 2.875 3.797 5.12 6.609 6.68 2.809 1.558 6.059 2.347 9.652 2.347 4.2 0 7.782-.84 10.653-2.492l.117-.067v-8.09l-.371.27a16.57 16.57 0 0 1-4.32 2.25c-1.56.543-2.985.82-4.231.82-3.465 0-6.246-1.086-8.266-3.222-2.023-2.14-3.05-5.145-3.05-8.926 0-3.809 1.07-6.89 3.18-9.164 2.1-2.27 4.89-3.418 8.28-3.418 2.903 0 5.731.984 8.407 2.922l.37.27v-8.524l-.116-.067c-1.008-.562-2.383-1.03-4.086-1.382-1.7-.352-3.36-.532-4.938-.532zm-26.336.907h-8.828v37.539h8.828zm-4.324-15.993c-1.453 0-2.723.497-3.762 1.477-1.046.98-1.578 2.219-1.578 3.68 0 1.437.528 2.652 1.563 3.61 1.027.956 2.3 1.44 3.777 1.44 1.477 0 2.754-.484 3.797-1.437 1.047-.96 1.578-2.176 1.578-3.613 0-1.41-.516-2.633-1.535-3.64-1.02-1.009-2.313-1.517-3.84-1.517zm-22.031 13.223v40.309h9.012V17.504h-12.473l-15.856 38.91-15.386-38.91h-12.98v52.383h8.468V29.574h.293l16.246 40.313h6.39l15.993-40.309zm0 0" fill="#6e6e6e"/><path d="M0 0h41.543v41.543H0zm0 0" fill="#7a7a7a"/><path d="M45.867 0h41.54v41.543h-41.54zm0 0" fill="#a3a3a3"/><path d="M0 45.883h41.54v41.543H0zm0 0" fill="#828282"/><path d="M45.867 45.883h41.54v41.543h-41.54zm0 0" fill="#bababa"/></svg>