<svg xmlns="http://www.w3.org/2000/svg" width="546.133" height="104pt" viewBox="0 0 409.600006 104"><path d="M0 15.332h15.988v58.242h29.61v14.754H0V15.332m60.344-1.082c4.922 0 8.918 3.992 8.918 8.91 0 4.926-3.996 8.91-8.918 8.91a8.909 8.909 0 0 1-8.91-8.91c0-4.918 3.992-8.91 8.91-8.91zM52.66 38.84h15.371v49.469h-15.37zm23.871.008h14.754v6.761h.203c2.047-3.894 7.07-7.988 14.547-7.988 15.578 0 18.445 10.242 18.445 23.559v27.129h-15.37V64.258c0-5.742-.106-13.117-7.997-13.117-7.988 0-9.215 6.254-9.215 12.707v24.46H76.531v-49.46m55.742-23.52h15.368v43.625l17.406-20.133h18.836l-20.16 22.903 19.738 26.605h-19.316L147.84 63.875h-.2v24.453h-15.367v-73" fill="#1a1a1a"/><path d="M229.242 79.742c-4.922 6.254-13.012 9.844-21.004 9.844-15.367 0-27.664-10.25-27.664-26.133 0-15.879 12.297-26.121 27.664-26.121 14.352 0 23.364 10.242 23.364 26.121v4.817h-35.657c1.22 5.84 5.633 9.632 11.575 9.632 5.023 0 8.402-2.562 10.964-6.047zM216.23 57.824c.102-5.125-3.894-9.43-9.43-9.43-6.76 0-10.448 4.614-10.855 9.43zM290.055 88.3H275.91v-6.558h-.2c-2.362 3.586-8.3 7.79-15.269 7.79-14.761 0-24.492-10.653-24.492-25.716 0-13.836 8.606-26.539 22.746-26.539 6.356 0 12.297 1.743 15.782 6.555h.203V15.328h15.375zm-26.446-37.5c-7.68 0-12.289 5.13-12.289 12.602 0 7.489 4.61 12.602 12.29 12.602 7.69 0 12.3-5.113 12.3-12.602 0-7.472-4.61-12.601-12.3-12.601zm0 0" fill="#1a1a1a"/><path d="M401.41 0h-88.336c-4.222 0-7.652 3.348-7.652 7.473V96.18c0 4.129 3.43 7.48 7.652 7.48h88.336c4.23 0 7.676-3.351 7.676-7.48V7.473c0-4.125-3.445-7.473-7.676-7.473" fill="#474747"/><path d="M328.484 14.27c4.914 0 8.91 3.996 8.91 8.914 0 4.921-3.996 8.918-8.91 8.918a8.916 8.916 0 0 1 0-17.832zm-7.691 24.593h15.375v49.469h-15.375zm25.016 0h14.75v6.758h.207c2.05-3.89 7.066-7.988 14.546-7.988 15.567 0 18.442 10.246 18.442 23.562v27.137H378.39V64.273c0-5.738-.106-13.117-7.989-13.117-8.004 0-9.226 6.25-9.226 12.703v24.473h-15.367V38.863" fill="#fff"/></svg>