<svg xmlns="http://www.w3.org/2000/svg" width="546.133" height="155.733" viewBox="0 0 409.600006 116.800003"><path d="M21.703.723c-8.36 3.5-17.547 13.379-20.45 25.785-3.67 15.715 11.619 22.362 12.877 20.187 1.473-2.562-2.742-3.425-3.61-11.582-1.12-10.531 3.774-22.3 9.938-27.465 1.145-.96 1.09.375 1.09 2.844 0 4.418-.242 44.07-.242 52.344 0 11.2-.465 14.734-1.293 18.227-.844 3.542-2.196 5.933-1.172 6.855 1.148 1.031 6.039-1.422 8.87-5.371 3.395-4.742 4.583-10.434 4.798-16.613.258-7.454.246-19.274.258-26.02.007-6.184.101-24.297-.11-35.184-.054-2.671-7.46-5.472-10.953-4.007m296.753 52.402c-.27 5.82-1.559 10.371-3.16 13.578-3.094 6.215-9.52 8.145-12.246-.785-1.488-4.871-1.555-13-.488-19.797 1.09-6.922 4.125-12.148 9.156-11.676 4.96.465 7.285 6.86 6.738 18.68zm-83.64 36.117c-.067 9.672-1.59 18.153-4.856 20.613-4.629 3.493-10.852.875-9.563-6.183 1.141-6.246 6.532-12.625 14.43-20.418 0 0 .02 1.777-.012 5.988zm-1.266-36.176c-.281 5.305-1.656 10.63-3.156 13.637-3.094 6.215-9.567 8.156-12.25-.785-1.833-6.113-1.395-14.023-.485-19.008 1.176-6.465 4.031-12.465 9.156-12.465 4.98 0 7.438 5.465 6.735 18.621zm-48.45-.078c-.304 5.614-1.402 10.309-3.16 13.715-3.18 6.172-9.472 8.129-12.246-.785-2-6.434-1.32-15.2-.488-19.934 1.234-7.027 4.328-12.011 9.156-11.539 4.957.485 7.371 6.86 6.739 18.543zm222.04 6.559c-1.211 0-1.766 1.25-2.223 3.351-1.586 7.313-3.254 8.965-5.406 8.965-2.407 0-4.567-3.62-5.121-10.87-.434-5.7-.364-16.196.191-26.634.117-2.144-.477-4.27-6.23-6.359-2.473-.898-6.075-2.223-7.864 2.105-5.062 12.215-7.043 21.918-7.508 25.856-.027.207-.277.246-.32-.23-.297-3.157-.96-8.891-1.043-20.942-.015-2.348-.515-4.352-3.11-5.988-1.683-1.063-6.796-2.946-8.636-.707-1.598 1.828-3.445 6.754-5.363 12.59-1.559 4.742-2.645 7.949-2.645 7.949s.02-12.797.04-17.653c.007-1.832-1.25-2.44-1.63-2.55-1.703-.496-5.062-1.32-6.488-1.32-1.762 0-2.191.98-2.191 2.413 0 .188-.278 16.852-.278 28.504 0 .504 0 1.059.004 1.645-.976 5.355-4.129 12.625-7.562 12.625-3.438 0-5.059-3.04-5.059-16.93 0-8.105.242-11.629.363-17.488.07-3.375.204-5.969.196-6.559-.024-1.8-3.145-2.71-4.594-3.047-1.46-.34-2.726-.472-3.719-.414-1.398.078-2.39.996-2.39 2.262 0 .68.007 1.965.007 1.965-1.804-2.832-4.707-4.809-6.636-5.379-5.2-1.543-10.625-.176-14.719 5.55-3.25 4.552-5.21 9.704-5.984 17.11-.563 5.414-.38 10.903.625 15.543-1.215 5.238-3.461 7.387-5.926 7.387-3.574 0-6.168-5.836-5.867-15.93.199-6.64 1.527-11.3 2.98-18.039.617-2.875.117-4.379-1.148-5.82-1.157-1.324-3.621-2-7.168-1.168-2.524.594-6.133 1.23-9.438 1.719 0 0 .2-.797.364-2.196.859-7.355-7.13-6.758-9.68-4.41-1.52 1.402-2.555 3.055-2.95 6.031-.62 4.715 3.227 6.942 3.227 6.942-1.265 5.781-4.36 13.328-7.555 18.785-1.71 2.926-3.019 5.094-4.71 7.398l-.012-2.57c-.04-12.152.12-21.71.195-25.16.067-3.375.203-5.899.195-6.488-.02-1.317-.789-1.817-2.39-2.45-1.418-.558-3.094-.941-4.832-1.078-2.196-.172-3.516.992-3.48 2.367.007.262.007 1.856.007 1.856-1.805-2.832-4.707-4.809-6.637-5.379-5.199-1.543-10.625-.176-14.718 5.55-3.254 4.552-5.383 10.938-5.985 17.052-.562 5.703-.46 10.546.309 14.629-.828 4.085-3.207 8.359-5.895 8.359-3.433 0-5.39-3.04-5.39-16.93 0-8.105.242-11.629.363-17.488.07-3.375.203-5.969.195-6.555-.023-1.804-3.144-2.715-4.597-3.05-1.516-.352-2.828-.481-3.836-.407-1.328.098-2.262 1.29-2.262 2.176v2.043c-1.805-2.832-4.707-4.809-6.637-5.379-5.199-1.543-10.593-.152-14.718 5.55-2.688 3.72-4.864 7.845-5.985 16.973a57.57 57.57 0 0 0-.449 7.415c-1.07 6.558-5.805 14.113-9.68 14.113-2.265 0-4.425-4.395-4.425-13.766 0-12.48.773-30.246.906-31.96 0 0 4.89-.083 5.84-.095 2.441-.027 4.652.032 7.902-.136 1.633-.082 3.203-5.934 1.52-6.66-.762-.328-6.153-.614-8.293-.66-1.797-.04-6.797-.41-6.797-.41s.445-11.794.55-13.04c.09-1.039-1.254-1.574-2.023-1.898-1.875-.793-3.55-1.172-5.54-1.582-2.741-.567-3.987-.012-4.23 2.304-.367 3.516-.558 13.813-.558 13.813-2.012 0-8.895-.39-10.91-.39-1.871 0-3.89 8.05-1.305 8.148 2.98.117 8.168.215 11.61.32 0 0-.153 18.063-.153 23.637 0 .594 0 1.164.004 1.719-1.89 9.87-8.563 15.199-8.563 15.199 1.434-6.528-1.492-11.43-6.761-15.582-1.942-1.528-5.774-4.422-10.063-7.598 0 0 2.485-2.445 4.688-7.371 1.558-3.488 1.625-7.48-2.203-8.36-6.332-1.456-11.551 3.192-13.106 8.153-1.207 3.848-.562 6.7 1.8 9.664.173.215.36.438.552.66-1.43 2.754-3.39 6.461-5.055 9.336C88.512 62.187 85.027 68.5 82.391 68.5c-2.106 0-2.079-6.41-2.079-12.414 0-5.176.383-12.953.688-21.008.102-2.664-1.23-4.18-3.46-5.555-1.36-.835-4.255-2.476-5.93-2.476-2.512 0-9.755.34-16.594 20.133-.864 2.492-2.559 7.039-2.559 7.039l.148-23.801c0-.559-.296-1.098-.98-1.465-1.152-.629-4.23-1.906-6.969-1.906-1.304 0-1.957.605-1.957 1.816l-.238 37.235c0 2.832.074 6.129.355 7.574.278 1.445.73 2.621 1.29 3.32.558.7 1.203 1.23 2.269 1.45.988.206 6.418.902 6.7-1.172.34-2.485.35-5.172 3.198-15.2 4.438-15.613 10.223-23.23 12.942-25.933.476-.473 1.02-.5.992.273-.113 3.422-.523 11.973-.797 19.238-.738 19.446 2.8 23.047 7.856 23.047 3.867 0 9.316-3.84 15.16-13.566 3.644-6.063 7.18-12.008 9.722-16.29 1.77 1.641 3.758 3.403 5.747 5.29 4.613 4.379 6.128 8.543 5.125 12.492-.77 3.02-3.665 6.129-8.82 3.106-1.505-.883-2.145-1.563-3.653-2.559-.813-.535-2.05-.695-2.797-.133-1.93 1.453-3.031 3.305-3.664 5.598-.61 2.226 1.621 3.406 3.937 4.437 1.993.887 6.278 1.692 9.008 1.782 10.645.355 19.172-5.137 25.106-19.313 1.062 12.242 5.586 19.168 13.441 19.168 5.254 0 10.52-6.789 12.824-13.469.66 2.723 1.637 5.09 2.903 7.094 6.054 9.594 17.797 7.527 23.695-.617 1.824-2.516 2.102-3.422 2.102-3.422.863 7.691 7.054 10.379 10.601 10.379 3.973 0 8.074-1.879 10.945-8.348.34.703.707 1.371 1.106 2.008 6.055 9.594 17.8 7.527 23.7-.617.276-.383.519-.73.73-1.04l.171 5.052-5.43 4.98c-9.105 8.344-16.019 14.672-16.527 22.043-.648 9.398 6.97 12.89 12.739 13.348 6.12.488 11.367-2.895 14.59-7.63 2.835-4.167 4.691-13.136 4.554-21.991-.054-3.547-.144-8.059-.215-12.891 3.196-3.711 6.797-8.402 10.114-13.895 3.61-5.98 7.484-14.015 9.465-20.27 0 0 3.363.028 6.957-.206 1.148-.074 1.476.16 1.265 1-.258 1.02-4.539 17.523-.633 28.52 2.676 7.527 8.7 9.949 12.274 9.949 4.183 0 8.183-3.157 10.328-7.848.258.523.527 1.027.824 1.496 6.055 9.594 17.758 7.516 23.7-.617 1.34-1.836 2.1-3.422 2.1-3.422 1.274 7.96 7.466 10.418 11.009 10.418 3.695 0 7.199-1.512 10.043-8.242.117 2.965.304 5.386.601 6.148.18.469 1.23 1.055 1.992 1.336 3.38 1.254 6.825.66 8.102.402.883-.175 1.57-.886 1.664-2.714.246-4.805.094-12.875 1.55-18.875 2.446-10.067 4.727-13.97 5.81-15.903.605-1.086 1.289-1.261 1.312-.117.05 2.32.168 9.133 1.113 18.281.696 6.73 1.625 10.711 2.34 11.97 2.035 3.6 4.555 3.769 6.602 3.769 1.304 0 4.03-.36 3.785-2.649-.117-1.117.09-8.02 2.5-17.937 1.574-6.477 4.199-12.328 5.144-14.47.352-.788.512-.167.508-.046-.2 4.461-.648 19.05 1.168 27.027 2.465 10.813 9.59 12.02 12.074 12.02 5.301 0 9.633-4.031 11.094-14.64.352-2.555-.168-4.524-1.73-4.524zm0 0" fill="#333"/></svg>